<svg xmlns="http://www.w3.org/2000/svg" viewBox="0 0 100 100" width="100" height="100" role="img" aria-label="ShellTeam petal mark, gilded compact"><defs><linearGradient id="au" x1="0" y1="0" x2="0" y2="1"><stop offset="0" stop-color="#fbbf24"/><stop offset="1" stop-color="#d97706"/></linearGradient></defs><g fill="url(#au)"><g transform="translate(1.857 7.393) scale(0.9629)"><path d="M 11.00 48.25 A 4.91 4.91 0 1 1 18.54 42.05 L 33.04 64.50 L 27.82 64.50 Z"/><path d="M 17.55 34.99 A 5.66 5.66 0 1 1 27.63 30.02 L 39.99 64.50 L 36.61 64.50 Z"/><path d="M 29.15 25.35 A 6.10 6.10 0 1 1 40.96 22.60 L 45.78 64.50 L 43.17 64.50 Z"/><path d="M 43.79 20.97 A 6.25 6.25 0 1 1 56.21 20.97 L 51.20 64.50 L 48.80 64.50 Z"/><path d="M 59.04 22.60 A 6.10 6.10 0 1 1 70.85 25.35 L 56.83 64.50 L 54.22 64.50 Z"/><path d="M 72.37 30.02 A 5.66 5.66 0 1 1 82.45 34.99 L 63.39 64.50 L 60.01 64.50 Z"/><path d="M 81.46 42.05 A 4.91 4.91 0 1 1 89.00 48.25 L 72.18 64.50 L 66.96 64.50 Z"/><rect x="27.82" y="67.50" width="44.35" height="7.0" rx="3.50"/></g></g></svg>